G04 Layer_Color=128*
%FSLAX44Y44*%
%MOMM*%
G71*
G01*
G75*
%ADD12R,1.2000X1.1400*%
%ADD13R,1.1400X1.2000*%
%ADD17R,0.6000X1.4500*%
%ADD18O,0.6000X1.4500*%
%ADD24R,2.6000X1.5000*%
%ADD50R,0.9000X1.0500*%
%ADD51R,3.1000X1.0500*%
%ADD52C,0.3500*%
%ADD53O,0.4500X2.1000*%
%ADD54R,1.5000X2.6000*%
%ADD55R,3.9370X2.9210*%
D12*
X622500Y203000D02*
D03*
X641500D02*
D03*
X358500Y598000D02*
D03*
X377500D02*
D03*
Y618000D02*
D03*
X358500D02*
D03*
X375500Y1159250D02*
D03*
X356500D02*
D03*
X315000D02*
D03*
X334000D02*
D03*
X533500Y306000D02*
D03*
X514500D02*
D03*
X432500Y356000D02*
D03*
X413500D02*
D03*
X718500Y203000D02*
D03*
X737500D02*
D03*
X814500D02*
D03*
X833500D02*
D03*
X680500D02*
D03*
X699500D02*
D03*
X584500D02*
D03*
X603500D02*
D03*
X776500D02*
D03*
X795500D02*
D03*
X422500Y629000D02*
D03*
X441500D02*
D03*
Y609000D02*
D03*
X422500D02*
D03*
Y589000D02*
D03*
X441500D02*
D03*
X652500Y690000D02*
D03*
X633500D02*
D03*
X652500Y710000D02*
D03*
X633500D02*
D03*
X625500Y591000D02*
D03*
X606500D02*
D03*
X625500Y546000D02*
D03*
X606500D02*
D03*
X606500Y566000D02*
D03*
X625500D02*
D03*
X720500Y651000D02*
D03*
X739500D02*
D03*
X720500Y601000D02*
D03*
X739500D02*
D03*
X720500Y546000D02*
D03*
X739500D02*
D03*
X625500Y642000D02*
D03*
X606500D02*
D03*
X292500Y705000D02*
D03*
X273500D02*
D03*
X277500Y667000D02*
D03*
X296500D02*
D03*
X278500Y617000D02*
D03*
X297500D02*
D03*
X179500Y607000D02*
D03*
X160500D02*
D03*
X179500Y657000D02*
D03*
X160500D02*
D03*
D13*
X376000Y736500D02*
D03*
Y717500D02*
D03*
X525000Y423500D02*
D03*
Y442500D02*
D03*
X336000Y252500D02*
D03*
Y271500D02*
D03*
X225000Y419500D02*
D03*
Y438500D02*
D03*
X205000Y419500D02*
D03*
Y438500D02*
D03*
X185000Y419500D02*
D03*
Y438500D02*
D03*
X165000Y419500D02*
D03*
Y438500D02*
D03*
X145000Y419500D02*
D03*
Y438500D02*
D03*
X125000Y419500D02*
D03*
Y438500D02*
D03*
X217000Y368500D02*
D03*
Y349500D02*
D03*
X197000Y368500D02*
D03*
Y349500D02*
D03*
X177000Y368500D02*
D03*
Y349500D02*
D03*
X157000Y368500D02*
D03*
Y349500D02*
D03*
X137000Y368500D02*
D03*
Y349500D02*
D03*
X615000Y810500D02*
D03*
Y791500D02*
D03*
X356000Y252500D02*
D03*
Y271500D02*
D03*
Y309500D02*
D03*
Y290500D02*
D03*
X336000Y229500D02*
D03*
Y210500D02*
D03*
X757000Y184500D02*
D03*
Y203500D02*
D03*
X661000Y184500D02*
D03*
Y203500D02*
D03*
X565000Y184500D02*
D03*
Y203500D02*
D03*
X635000Y791500D02*
D03*
Y810500D02*
D03*
X842000Y1091500D02*
D03*
Y1072500D02*
D03*
X800000D02*
D03*
Y1091500D02*
D03*
X758000D02*
D03*
Y1072500D02*
D03*
X716000D02*
D03*
Y1091500D02*
D03*
X674000D02*
D03*
Y1072500D02*
D03*
X632000D02*
D03*
Y1091500D02*
D03*
X590000D02*
D03*
Y1072500D02*
D03*
X548000D02*
D03*
Y1091500D02*
D03*
X506000D02*
D03*
Y1072500D02*
D03*
X464000D02*
D03*
Y1091500D02*
D03*
X271000Y454500D02*
D03*
Y473500D02*
D03*
X292000Y454500D02*
D03*
Y473500D02*
D03*
X645000Y584500D02*
D03*
Y565500D02*
D03*
X700000Y584500D02*
D03*
Y565500D02*
D03*
X740000Y678500D02*
D03*
Y697500D02*
D03*
X760000Y678500D02*
D03*
Y697500D02*
D03*
X685000Y678500D02*
D03*
Y697500D02*
D03*
X182000Y566500D02*
D03*
Y547500D02*
D03*
X164000Y566500D02*
D03*
Y547500D02*
D03*
X142000Y680500D02*
D03*
Y699500D02*
D03*
X162000Y699500D02*
D03*
Y680500D02*
D03*
X207000Y680500D02*
D03*
Y699500D02*
D03*
X222000Y579500D02*
D03*
Y560500D02*
D03*
X315000Y579500D02*
D03*
Y560500D02*
D03*
X295000Y579500D02*
D03*
Y560500D02*
D03*
X312000Y686500D02*
D03*
Y705500D02*
D03*
D17*
X520400Y229750D02*
D03*
X469600D02*
D03*
X495000D02*
D03*
X456900Y284250D02*
D03*
X469600D02*
D03*
X482300D02*
D03*
X495000D02*
D03*
X507700D02*
D03*
X520400D02*
D03*
X533100D02*
D03*
X456900Y229750D02*
D03*
X482300D02*
D03*
X507700D02*
D03*
X699500Y284750D02*
D03*
X674100D02*
D03*
X686800D02*
D03*
X712200D02*
D03*
X737600Y230250D02*
D03*
X724900D02*
D03*
X712200D02*
D03*
X699500D02*
D03*
X686800D02*
D03*
X674100D02*
D03*
X661400D02*
D03*
X737600Y284750D02*
D03*
X724900D02*
D03*
X605000D02*
D03*
X579600D02*
D03*
X592300D02*
D03*
X617700D02*
D03*
X643100Y230250D02*
D03*
X630400D02*
D03*
X617700D02*
D03*
X605000D02*
D03*
X592300D02*
D03*
X579600D02*
D03*
X566900D02*
D03*
X643100Y284750D02*
D03*
X630400D02*
D03*
X794000D02*
D03*
X768600D02*
D03*
X781300D02*
D03*
X806700D02*
D03*
X832100Y230250D02*
D03*
X819400D02*
D03*
X806700D02*
D03*
X768600D02*
D03*
X755900D02*
D03*
X832100Y284750D02*
D03*
X819400D02*
D03*
X794000Y230250D02*
D03*
X781300D02*
D03*
D18*
X533100Y229750D02*
D03*
X661400Y284750D02*
D03*
X566900D02*
D03*
X755900D02*
D03*
D24*
X464000Y1115000D02*
D03*
Y1145000D02*
D03*
X506000D02*
D03*
Y1115000D02*
D03*
X548000D02*
D03*
Y1145000D02*
D03*
X590000D02*
D03*
Y1115000D02*
D03*
X632000D02*
D03*
Y1145000D02*
D03*
X674000D02*
D03*
Y1115000D02*
D03*
X716000D02*
D03*
Y1145000D02*
D03*
X758000D02*
D03*
Y1115000D02*
D03*
X800000D02*
D03*
Y1145000D02*
D03*
X842000D02*
D03*
Y1115000D02*
D03*
D50*
X311000Y1141000D02*
D03*
X334000D02*
D03*
X357000D02*
D03*
D51*
X334000Y1073500D02*
D03*
D52*
X415000Y763000D02*
D03*
Y773000D02*
D03*
Y783000D02*
D03*
Y793000D02*
D03*
X405000Y763000D02*
D03*
Y773000D02*
D03*
Y783000D02*
D03*
Y793000D02*
D03*
X395000Y763000D02*
D03*
Y773000D02*
D03*
Y783000D02*
D03*
Y793000D02*
D03*
X385000Y763000D02*
D03*
Y773000D02*
D03*
Y783000D02*
D03*
Y793000D02*
D03*
X375000Y763000D02*
D03*
Y773000D02*
D03*
Y783000D02*
D03*
Y793000D02*
D03*
X365000Y763000D02*
D03*
Y773000D02*
D03*
Y783000D02*
D03*
Y793000D02*
D03*
D53*
X375750Y292000D02*
D03*
X382250D02*
D03*
X388750D02*
D03*
X395250D02*
D03*
X401750D02*
D03*
X408250D02*
D03*
X414750D02*
D03*
X421250D02*
D03*
X427750D02*
D03*
X434250D02*
D03*
X375750Y223000D02*
D03*
X382250D02*
D03*
X388750D02*
D03*
X395250D02*
D03*
X401750D02*
D03*
X408250D02*
D03*
X414750D02*
D03*
X421250D02*
D03*
X427750D02*
D03*
X434250D02*
D03*
D54*
X401000Y387000D02*
D03*
X431000D02*
D03*
D55*
X160000Y994500D02*
D03*
Y1287500D02*
D03*
M02*
