G04 Layer_Color=8388736*
%FSLAX44Y44*%
%MOMM*%
G71*
G01*
G75*
%ADD46C,1.7000*%
%ADD48C,1.6500*%
%ADD66R,51.8000X5.9750*%
%ADD67R,0.9000X4.4000*%
%ADD68R,0.9000X3.4000*%
%ADD69R,1.4000X1.3400*%
%ADD70R,1.3400X1.4000*%
%ADD71R,1.3000X2.4000*%
%ADD72R,4.1000X1.5000*%
%ADD73R,2.0000X2.2000*%
%ADD74R,0.8000X1.6500*%
%ADD75O,0.8000X1.6500*%
%ADD76R,1.8000X1.6000*%
%ADD77O,2.3000X0.5000*%
%ADD78O,0.5000X2.3000*%
%ADD79O,0.7500X2.1500*%
%ADD80R,0.7500X2.1500*%
%ADD81R,2.8000X1.7000*%
%ADD82R,0.6000X1.5500*%
%ADD83R,1.7000X2.1000*%
%ADD84R,1.2000X1.4000*%
%ADD85R,0.9000X1.4000*%
%ADD86R,1.2000X1.0000*%
%ADD87R,1.2000X3.0000*%
%ADD88R,1.5000X2.1000*%
%ADD89R,1.7000X1.7000*%
%ADD90R,1.7000X1.7000*%
%ADD91R,2.1000X2.2000*%
%ADD92R,2.0000X2.2000*%
%ADD93C,1.0000*%
D46*
X369600Y330000D02*
D03*
X126600Y882200D02*
D03*
X152000D02*
D03*
X126600Y856800D02*
D03*
X152000D02*
D03*
X126600Y831400D02*
D03*
X152000D02*
D03*
X126600Y806000D02*
D03*
X152000D02*
D03*
X126600Y780600D02*
D03*
X792600Y460400D02*
D03*
X818000D02*
D03*
X792600Y435000D02*
D03*
X818000D02*
D03*
X792600Y409600D02*
D03*
X818000D02*
D03*
X792600Y384200D02*
D03*
X818000D02*
D03*
X792600Y358800D02*
D03*
D48*
X366000Y1288500D02*
D03*
X316000D02*
D03*
D66*
X465500Y27375D02*
D03*
D67*
X475500Y35000D02*
D03*
X445500D02*
D03*
X455500D02*
D03*
X465500D02*
D03*
X485500D02*
D03*
X525500D02*
D03*
X545500D02*
D03*
X555500D02*
D03*
X695500D02*
D03*
X685500D02*
D03*
X675500D02*
D03*
X665500D02*
D03*
X655500D02*
D03*
X645500D02*
D03*
X565500D02*
D03*
X575500D02*
D03*
X585500D02*
D03*
X595500D02*
D03*
X605500D02*
D03*
X615500D02*
D03*
X625500D02*
D03*
X635500D02*
D03*
X715500D02*
D03*
X495500D02*
D03*
X515500D02*
D03*
X505500D02*
D03*
X415500D02*
D03*
X425500D02*
D03*
X435500D02*
D03*
X215500D02*
D03*
X225500D02*
D03*
X295500D02*
D03*
X265500D02*
D03*
X235500D02*
D03*
X285500D02*
D03*
X245500D02*
D03*
X255500D02*
D03*
X275500D02*
D03*
X305500D02*
D03*
X315500D02*
D03*
X355500D02*
D03*
X405500D02*
D03*
X365500D02*
D03*
X385500D02*
D03*
X375500D02*
D03*
X345500D02*
D03*
D68*
X535500Y40000D02*
D03*
X705500D02*
D03*
X395500D02*
D03*
D69*
X393500Y750000D02*
D03*
X412500D02*
D03*
X375500Y356000D02*
D03*
X394500D02*
D03*
X757500Y430000D02*
D03*
X738500D02*
D03*
X700500D02*
D03*
X719500D02*
D03*
X681500D02*
D03*
X662500D02*
D03*
X718500Y327000D02*
D03*
X699500D02*
D03*
X737500D02*
D03*
X756500D02*
D03*
X118500Y1115000D02*
D03*
X99500D02*
D03*
X118500Y1095000D02*
D03*
X99500D02*
D03*
X118500Y1075000D02*
D03*
X99500D02*
D03*
X118500Y1055000D02*
D03*
X99500D02*
D03*
X118500Y1135000D02*
D03*
X99500D02*
D03*
D70*
X362000Y723500D02*
D03*
Y742500D02*
D03*
X213000Y781500D02*
D03*
Y762500D02*
D03*
X755000Y476500D02*
D03*
Y495500D02*
D03*
X411000Y892500D02*
D03*
Y873500D02*
D03*
X437000Y892500D02*
D03*
Y873500D02*
D03*
X349000Y892500D02*
D03*
Y873500D02*
D03*
X375000Y892500D02*
D03*
Y873500D02*
D03*
X675000Y347500D02*
D03*
Y366500D02*
D03*
X65000Y567500D02*
D03*
Y548500D02*
D03*
Y586500D02*
D03*
Y605500D02*
D03*
X849000Y706500D02*
D03*
Y687500D02*
D03*
Y649500D02*
D03*
Y668500D02*
D03*
X675000Y391500D02*
D03*
Y410500D02*
D03*
X406250Y226500D02*
D03*
Y207500D02*
D03*
X386250Y226500D02*
D03*
Y207500D02*
D03*
X425750Y226500D02*
D03*
Y207500D02*
D03*
X338000Y431500D02*
D03*
Y450500D02*
D03*
X235000Y450500D02*
D03*
Y431500D02*
D03*
X569000Y810500D02*
D03*
Y791500D02*
D03*
X671000Y791500D02*
D03*
Y810500D02*
D03*
X800000Y1091500D02*
D03*
Y1072500D02*
D03*
X758000D02*
D03*
Y1091500D02*
D03*
X716000D02*
D03*
Y1072500D02*
D03*
X674000D02*
D03*
Y1091500D02*
D03*
X632000D02*
D03*
Y1072500D02*
D03*
X590000D02*
D03*
Y1091500D02*
D03*
X548000D02*
D03*
Y1072500D02*
D03*
X506000D02*
D03*
Y1091500D02*
D03*
X464000D02*
D03*
Y1072500D02*
D03*
X842000Y1091500D02*
D03*
Y1072500D02*
D03*
D71*
X348800Y1004000D02*
D03*
X374200D02*
D03*
Y916001D02*
D03*
X348800D02*
D03*
X411300D02*
D03*
X436700D02*
D03*
X436700Y1004000D02*
D03*
X411300D02*
D03*
D72*
X162000Y325000D02*
D03*
X78000D02*
D03*
Y202500D02*
D03*
X162000D02*
D03*
D73*
X311500Y404000D02*
D03*
Y446000D02*
D03*
X260700Y404000D02*
D03*
Y446000D02*
D03*
X595000Y838000D02*
D03*
Y796000D02*
D03*
X645800Y838000D02*
D03*
Y796000D02*
D03*
D74*
X475900Y425750D02*
D03*
X488600D02*
D03*
X501300D02*
D03*
X514000D02*
D03*
X526700D02*
D03*
X539400D02*
D03*
X552100D02*
D03*
X475900Y480250D02*
D03*
X488600D02*
D03*
X501300D02*
D03*
X514000D02*
D03*
X526700D02*
D03*
X539400D02*
D03*
D75*
X552100D02*
D03*
D76*
X648000Y972500D02*
D03*
Y927500D02*
D03*
X732000Y972500D02*
D03*
Y927500D02*
D03*
D77*
X783500Y716250D02*
D03*
Y711250D02*
D03*
Y706250D02*
D03*
Y701250D02*
D03*
Y696250D02*
D03*
Y691250D02*
D03*
Y686250D02*
D03*
Y681250D02*
D03*
Y676250D02*
D03*
Y671250D02*
D03*
Y666250D02*
D03*
Y661250D02*
D03*
Y656250D02*
D03*
Y651250D02*
D03*
Y646250D02*
D03*
Y641250D02*
D03*
Y636250D02*
D03*
Y631250D02*
D03*
Y626250D02*
D03*
Y621250D02*
D03*
Y616250D02*
D03*
Y611250D02*
D03*
Y606250D02*
D03*
Y601250D02*
D03*
Y596250D02*
D03*
Y591250D02*
D03*
Y586250D02*
D03*
Y581250D02*
D03*
Y576250D02*
D03*
Y571250D02*
D03*
Y566250D02*
D03*
Y561250D02*
D03*
Y556250D02*
D03*
Y551250D02*
D03*
Y546250D02*
D03*
Y541250D02*
D03*
X571500D02*
D03*
Y546250D02*
D03*
Y551250D02*
D03*
Y556250D02*
D03*
Y561250D02*
D03*
Y566250D02*
D03*
Y571250D02*
D03*
Y576250D02*
D03*
Y581250D02*
D03*
Y586250D02*
D03*
Y591250D02*
D03*
Y596250D02*
D03*
Y601250D02*
D03*
Y606250D02*
D03*
Y611250D02*
D03*
Y616250D02*
D03*
Y621250D02*
D03*
Y626250D02*
D03*
Y631250D02*
D03*
Y636250D02*
D03*
Y641250D02*
D03*
Y646250D02*
D03*
Y651250D02*
D03*
Y656250D02*
D03*
Y661250D02*
D03*
Y666250D02*
D03*
Y671250D02*
D03*
Y676250D02*
D03*
Y681250D02*
D03*
Y686250D02*
D03*
Y691250D02*
D03*
Y696250D02*
D03*
Y701250D02*
D03*
Y706250D02*
D03*
Y711250D02*
D03*
Y716250D02*
D03*
X123750Y542000D02*
D03*
Y547000D02*
D03*
Y552000D02*
D03*
Y557000D02*
D03*
Y562000D02*
D03*
Y567000D02*
D03*
Y572000D02*
D03*
Y577000D02*
D03*
Y582000D02*
D03*
Y587000D02*
D03*
Y592000D02*
D03*
Y597000D02*
D03*
Y602000D02*
D03*
Y607000D02*
D03*
Y612000D02*
D03*
Y617000D02*
D03*
Y622000D02*
D03*
Y627000D02*
D03*
Y632000D02*
D03*
Y637000D02*
D03*
Y642000D02*
D03*
Y647000D02*
D03*
Y652000D02*
D03*
Y657000D02*
D03*
Y662000D02*
D03*
Y667000D02*
D03*
Y672000D02*
D03*
Y677000D02*
D03*
Y682000D02*
D03*
Y687000D02*
D03*
Y692000D02*
D03*
Y697000D02*
D03*
Y702000D02*
D03*
Y707000D02*
D03*
Y712000D02*
D03*
Y717000D02*
D03*
X335750D02*
D03*
Y712000D02*
D03*
Y707000D02*
D03*
Y702000D02*
D03*
Y697000D02*
D03*
Y692000D02*
D03*
Y687000D02*
D03*
Y682000D02*
D03*
Y677000D02*
D03*
Y672000D02*
D03*
Y667000D02*
D03*
Y662000D02*
D03*
Y657000D02*
D03*
Y652000D02*
D03*
Y647000D02*
D03*
Y642000D02*
D03*
Y637000D02*
D03*
Y632000D02*
D03*
Y627000D02*
D03*
Y622000D02*
D03*
Y617000D02*
D03*
Y612000D02*
D03*
Y607000D02*
D03*
Y602000D02*
D03*
Y597000D02*
D03*
Y592000D02*
D03*
Y587000D02*
D03*
Y582000D02*
D03*
Y577000D02*
D03*
Y572000D02*
D03*
Y567000D02*
D03*
Y562000D02*
D03*
Y557000D02*
D03*
Y552000D02*
D03*
Y547000D02*
D03*
Y542000D02*
D03*
D78*
X765000Y522750D02*
D03*
X760000D02*
D03*
X755000D02*
D03*
X750000D02*
D03*
X745000D02*
D03*
X740000D02*
D03*
X735000D02*
D03*
X730000D02*
D03*
X725000D02*
D03*
X720000D02*
D03*
X715000D02*
D03*
X710000D02*
D03*
X705000D02*
D03*
X700000D02*
D03*
X695000D02*
D03*
X690000D02*
D03*
X685000D02*
D03*
X680000D02*
D03*
X675000D02*
D03*
X670000D02*
D03*
X665000D02*
D03*
X660000D02*
D03*
X655000D02*
D03*
X650000D02*
D03*
X645000D02*
D03*
X640000D02*
D03*
X635000D02*
D03*
X630000D02*
D03*
X625000D02*
D03*
X620000D02*
D03*
X615000D02*
D03*
X610000D02*
D03*
X605000D02*
D03*
X600000D02*
D03*
X595000D02*
D03*
X590000D02*
D03*
Y734750D02*
D03*
X595000D02*
D03*
X600000D02*
D03*
X605000D02*
D03*
X610000D02*
D03*
X615000D02*
D03*
X620000D02*
D03*
X625000D02*
D03*
X630000D02*
D03*
X635000D02*
D03*
X640000D02*
D03*
X645000D02*
D03*
X650000D02*
D03*
X655000D02*
D03*
X660000D02*
D03*
X665000D02*
D03*
X670000D02*
D03*
X675000D02*
D03*
X680000D02*
D03*
X685000D02*
D03*
X690000D02*
D03*
X695000D02*
D03*
X700000D02*
D03*
X705000D02*
D03*
X710000D02*
D03*
X715000D02*
D03*
X720000D02*
D03*
X725000D02*
D03*
X730000D02*
D03*
X735000D02*
D03*
X740000D02*
D03*
X745000D02*
D03*
X750000D02*
D03*
X755000D02*
D03*
X760000D02*
D03*
X765000D02*
D03*
X142250Y735500D02*
D03*
X147250D02*
D03*
X152250D02*
D03*
X157250D02*
D03*
X162250D02*
D03*
X167250D02*
D03*
X172250D02*
D03*
X177250D02*
D03*
X182250D02*
D03*
X187250D02*
D03*
X192250D02*
D03*
X197250D02*
D03*
X202250D02*
D03*
X207250D02*
D03*
X212250D02*
D03*
X217250D02*
D03*
X222250D02*
D03*
X227250D02*
D03*
X232250D02*
D03*
X237250D02*
D03*
X242250D02*
D03*
X247250D02*
D03*
X252250D02*
D03*
X257250D02*
D03*
X262250D02*
D03*
X267250D02*
D03*
X272250D02*
D03*
X277250D02*
D03*
X282250D02*
D03*
X287250D02*
D03*
X292250D02*
D03*
X297250D02*
D03*
X302250D02*
D03*
X307250D02*
D03*
X312250D02*
D03*
X317250D02*
D03*
Y523500D02*
D03*
X312250D02*
D03*
X307250D02*
D03*
X302250D02*
D03*
X297250D02*
D03*
X292250D02*
D03*
X287250D02*
D03*
X282250D02*
D03*
X277250D02*
D03*
X272250D02*
D03*
X267250D02*
D03*
X262250D02*
D03*
X257250D02*
D03*
X252250D02*
D03*
X247250D02*
D03*
X242250D02*
D03*
X237250D02*
D03*
X232250D02*
D03*
X227250D02*
D03*
X222250D02*
D03*
X217250D02*
D03*
X212250D02*
D03*
X207250D02*
D03*
X202250D02*
D03*
X197250D02*
D03*
X192250D02*
D03*
X187250D02*
D03*
X182250D02*
D03*
X177250D02*
D03*
X172250D02*
D03*
X167250D02*
D03*
X162250D02*
D03*
X157250D02*
D03*
X152250D02*
D03*
X147250D02*
D03*
X142250D02*
D03*
D79*
X696000Y354000D02*
D03*
D80*
X708700D02*
D03*
X721400D02*
D03*
X734100D02*
D03*
X696000Y402000D02*
D03*
X708700D02*
D03*
X721400D02*
D03*
X734100D02*
D03*
D81*
X464000Y1115000D02*
D03*
Y1145000D02*
D03*
X506000D02*
D03*
Y1115000D02*
D03*
X548000D02*
D03*
Y1145000D02*
D03*
X590000D02*
D03*
Y1115000D02*
D03*
X632000D02*
D03*
Y1145000D02*
D03*
X674000D02*
D03*
Y1115000D02*
D03*
X716000D02*
D03*
Y1145000D02*
D03*
X758000D02*
D03*
Y1115000D02*
D03*
X800000D02*
D03*
Y1145000D02*
D03*
X842000D02*
D03*
Y1115000D02*
D03*
D82*
X328000Y1288500D02*
D03*
X334500D02*
D03*
X341000D02*
D03*
X347500D02*
D03*
X354000D02*
D03*
D83*
X331000Y1315375D02*
D03*
X351000D02*
D03*
D84*
X227250Y1202000D02*
D03*
X116250Y1159000D02*
D03*
D85*
X131750D02*
D03*
X142750D02*
D03*
X153750D02*
D03*
X164750D02*
D03*
X175750D02*
D03*
X186750D02*
D03*
X197750D02*
D03*
X208750D02*
D03*
X218250D02*
D03*
D86*
X227250Y1264000D02*
D03*
D87*
Y1305500D02*
D03*
D88*
X97000Y1310000D02*
D03*
D89*
X395000Y330000D02*
D03*
D90*
X152000Y780600D02*
D03*
X818000Y358800D02*
D03*
D91*
X309030Y1315250D02*
D03*
D92*
X372970D02*
D03*
D93*
X827000Y709000D02*
D03*
X392750Y1022750D02*
D03*
X376000Y750000D02*
D03*
X544000Y192000D02*
D03*
X468763Y826500D02*
D03*
X236500Y685000D02*
D03*
X248000D02*
D03*
X460000Y819000D02*
D03*
X375500Y374000D02*
D03*
X375750Y269250D02*
D03*
X742000Y258000D02*
D03*
X182000Y680000D02*
D03*
X460000Y729000D02*
D03*
X828000Y660000D02*
D03*
X809000Y666000D02*
D03*
X175000Y885000D02*
D03*
X160000Y994500D02*
D03*
X83000Y597000D02*
D03*
X97000D02*
D03*
X255000Y90000D02*
D03*
X275000D02*
D03*
Y110000D02*
D03*
X255000D02*
D03*
X216000Y164000D02*
D03*
Y151000D02*
D03*
Y138000D02*
D03*
Y177000D02*
D03*
X378500Y534000D02*
D03*
X539000Y443000D02*
D03*
X238000Y402000D02*
D03*
X455000Y256000D02*
D03*
X364000Y229000D02*
D03*
X312000Y467000D02*
D03*
X595000Y816000D02*
D03*
X713000Y837000D02*
D03*
X213000Y325000D02*
D03*
X269000Y379000D02*
D03*
X355000Y415000D02*
D03*
X571000Y375000D02*
D03*
X538000Y206000D02*
D03*
X424000Y315000D02*
D03*
X302000Y344000D02*
D03*
X592300Y257000D02*
D03*
X579600D02*
D03*
X400000Y250000D02*
D03*
X387000Y249000D02*
D03*
X236000Y146000D02*
D03*
Y158000D02*
D03*
Y122000D02*
D03*
Y134000D02*
D03*
X317000Y185000D02*
D03*
X308000Y194000D02*
D03*
X479000Y156000D02*
D03*
X487000Y143000D02*
D03*
X434999Y146000D02*
D03*
X424000Y139000D02*
D03*
X420000Y250000D02*
D03*
X446000Y195000D02*
D03*
X462000D02*
D03*
X336808Y163192D02*
D03*
X346000Y154000D02*
D03*
X617700Y257000D02*
D03*
X581000Y408000D02*
D03*
X590000Y437000D02*
D03*
X645000Y179000D02*
D03*
X354000Y1231000D02*
D03*
X635000Y775000D02*
D03*
X290000Y71000D02*
D03*
X550000Y179000D02*
D03*
X740000D02*
D03*
X882000Y1145000D02*
D03*
X52000Y536000D02*
D03*
X755900Y258000D02*
D03*
X781300D02*
D03*
X794000D02*
D03*
X806700D02*
D03*
X768600D02*
D03*
X685000Y462000D02*
D03*
X698000Y449000D02*
D03*
X685000Y475000D02*
D03*
X698000Y462000D02*
D03*
X699500Y258000D02*
D03*
X686800D02*
D03*
X661400D02*
D03*
X674100D02*
D03*
X712200D02*
D03*
X48000Y605000D02*
D03*
X375778Y463778D02*
D03*
X366996Y454500D02*
D03*
X131076Y401839D02*
D03*
X139915Y393000D02*
D03*
X148753Y401839D02*
D03*
X157592Y393000D02*
D03*
X166431Y401839D02*
D03*
X175270Y393000D02*
D03*
X184109Y401839D02*
D03*
X192948Y393000D02*
D03*
X201786Y401839D02*
D03*
X210625Y393000D02*
D03*
X219464Y401839D02*
D03*
X202000Y273000D02*
D03*
X99000Y297000D02*
D03*
X74000Y418000D02*
D03*
X301000Y278000D02*
D03*
X112000Y297000D02*
D03*
X83192Y408808D02*
D03*
X211192Y282192D02*
D03*
X301000Y289500D02*
D03*
X112000Y310000D02*
D03*
X92385Y418000D02*
D03*
X202000Y291385D02*
D03*
X301000Y301000D02*
D03*
X125000Y310000D02*
D03*
X211192Y300577D02*
D03*
X101577Y408808D02*
D03*
X301000Y312500D02*
D03*
X125000Y323000D02*
D03*
X110770Y418000D02*
D03*
X202000Y309770D02*
D03*
X301000Y324000D02*
D03*
X412000Y646000D02*
D03*
Y658000D02*
D03*
Y670000D02*
D03*
Y682000D02*
D03*
Y694000D02*
D03*
X406000Y589586D02*
D03*
Y607971D02*
D03*
X393000Y599750D02*
D03*
Y617163D02*
D03*
X406000Y626355D02*
D03*
X391000Y534000D02*
D03*
X865500Y706500D02*
D03*
X865500Y649500D02*
D03*
X605000Y257000D02*
D03*
X609000Y702000D02*
D03*
X599808Y692808D02*
D03*
X609000Y683615D02*
D03*
X599808Y674423D02*
D03*
X609000Y665230D02*
D03*
X147500Y547500D02*
D03*
X222250Y545750D02*
D03*
X313000Y617000D02*
D03*
X335750Y727750D02*
D03*
X258000Y705000D02*
D03*
X207000Y715000D02*
D03*
X145000Y657000D02*
D03*
Y607000D02*
D03*
X156000Y715000D02*
D03*
X645000Y548000D02*
D03*
X700000D02*
D03*
X762000Y545000D02*
D03*
X757000Y601000D02*
D03*
X758000Y651000D02*
D03*
X760000Y714000D02*
D03*
X685000Y713000D02*
D03*
X599000Y712000D02*
D03*
X591000Y642000D02*
D03*
X591000Y591000D02*
D03*
Y563000D02*
D03*
X591999Y544999D02*
D03*
X43230Y662000D02*
D03*
X52423Y671192D02*
D03*
X61615Y662000D02*
D03*
X70808Y671192D02*
D03*
X80000Y662000D02*
D03*
X223865Y922000D02*
D03*
X233057Y912808D02*
D03*
X242250Y922000D02*
D03*
X251442Y912808D02*
D03*
X554000Y244000D02*
D03*
X657000Y411000D02*
D03*
X763000D02*
D03*
X332000Y494000D02*
D03*
X751000Y785000D02*
D03*
X677000Y629000D02*
D03*
X615000Y757000D02*
D03*
X543000Y707000D02*
D03*
X509000Y656000D02*
D03*
X545000D02*
D03*
X295000Y546000D02*
D03*
X272000Y490000D02*
D03*
X167250Y477250D02*
D03*
X142000Y715000D02*
D03*
X260635Y922000D02*
D03*
X258000Y666000D02*
D03*
X333000Y873000D02*
D03*
X320000Y856000D02*
D03*
X334000Y1178000D02*
D03*
X79000Y1089000D02*
D03*
X70868Y1097132D02*
D03*
X62737Y1105264D02*
D03*
X54605Y1113395D02*
D03*
X46473Y1121527D02*
D03*
X38341Y1129659D02*
D03*
X460000Y895000D02*
D03*
X96000Y565000D02*
D03*
X313000Y667000D02*
D03*
X258000Y555000D02*
D03*
X220808Y646808D02*
D03*
X230000Y656000D02*
D03*
X352000Y521000D02*
D03*
X132000Y744000D02*
D03*
X336000Y752000D02*
D03*
X370000Y843000D02*
D03*
X158000Y1068000D02*
D03*
X166132Y1076132D02*
D03*
X174263Y1084264D02*
D03*
X198659Y1108659D02*
D03*
X190527Y1100527D02*
D03*
X182395Y1092395D02*
D03*
X118500Y1034500D02*
D03*
X165000Y1187000D02*
D03*
M02*
