G04 Layer_Physical_Order=3*
G04 Layer_Color=128*
%FSLAX44Y44*%
%MOMM*%
G71*
G01*
G75*
%ADD45C,1.0160*%
%ADD46C,1.7000*%
%ADD49C,1.2000*%
D45*
X209000Y110000D02*
G03*
X189000Y130000I-20000J0D01*
G01*
X742000Y130000D02*
G03*
X722000Y110000I0J-20000D01*
G01*
X340000Y74500D02*
G03*
X321000Y74500I-9500J0D01*
G01*
X209000Y5000D02*
X214000Y0D01*
X209000Y5000D02*
Y110000D01*
X209000D02*
X209000D01*
X189000Y130000D02*
Y130000D01*
X0Y130000D02*
X189000D01*
X0D02*
Y1330000D01*
X920000D01*
Y130000D02*
Y1330000D01*
X742000Y130000D02*
X920000D01*
X722000Y110000D02*
X722000D01*
Y5000D02*
Y110000D01*
X717000Y0D02*
X722000Y5000D01*
X345000Y0D02*
X717000D01*
X340000Y5000D02*
X345000Y0D01*
X340000Y5000D02*
Y74500D01*
X340000Y74500D02*
X340000Y74500D01*
X321000D02*
X321000Y74500D01*
X321000Y5000D02*
Y74500D01*
X316000Y0D02*
X321000Y5000D01*
X214000Y0D02*
X316000D01*
D46*
X395000Y330000D02*
D03*
X152000Y882200D02*
D03*
X126600Y856800D02*
D03*
X152000D02*
D03*
X126600Y831400D02*
D03*
X152000D02*
D03*
X126600Y806000D02*
D03*
X152000D02*
D03*
X126600Y780600D02*
D03*
X152000D02*
D03*
X818000Y460400D02*
D03*
X792600Y435000D02*
D03*
X818000D02*
D03*
X792600Y409600D02*
D03*
X818000D02*
D03*
X792600Y384200D02*
D03*
X818000D02*
D03*
X792600Y358800D02*
D03*
X818000D02*
D03*
D49*
X827000Y709000D02*
D03*
X392750Y1022750D02*
D03*
X376000Y750000D02*
D03*
X544000Y192000D02*
D03*
X468763Y826500D02*
D03*
X236500Y685000D02*
D03*
X248000D02*
D03*
X460000Y819000D02*
D03*
X375500Y374000D02*
D03*
X375750Y269250D02*
D03*
X742000Y258000D02*
D03*
X182000Y680000D02*
D03*
X460000Y729000D02*
D03*
X828000Y660000D02*
D03*
X809000Y666000D02*
D03*
X175000Y885000D02*
D03*
X160000Y994500D02*
D03*
X83000Y597000D02*
D03*
X97000D02*
D03*
X216000Y164000D02*
D03*
Y151000D02*
D03*
Y138000D02*
D03*
Y177000D02*
D03*
X378500Y534000D02*
D03*
X539000Y443000D02*
D03*
X312000Y467000D02*
D03*
X595000Y816000D02*
D03*
X713000Y837000D02*
D03*
X213000Y325000D02*
D03*
X269000Y379000D02*
D03*
X355000Y415000D02*
D03*
X571000Y375000D02*
D03*
X538000Y206000D02*
D03*
X424000Y315000D02*
D03*
X302000Y344000D02*
D03*
X592300Y257000D02*
D03*
X579600D02*
D03*
X400000Y250000D02*
D03*
X387000Y249000D02*
D03*
X236000Y146000D02*
D03*
Y158000D02*
D03*
Y122000D02*
D03*
Y134000D02*
D03*
X317000Y185000D02*
D03*
X308000Y194000D02*
D03*
X479000Y156000D02*
D03*
X487000Y143000D02*
D03*
X434999Y146000D02*
D03*
X424000Y139000D02*
D03*
X420000Y250000D02*
D03*
X446000Y195000D02*
D03*
X462000D02*
D03*
X336808Y163192D02*
D03*
X346000Y154000D02*
D03*
X617700Y257000D02*
D03*
X581000Y408000D02*
D03*
X590000Y437000D02*
D03*
X354000Y1231000D02*
D03*
X635000Y775000D02*
D03*
X290000Y71000D02*
D03*
X882000Y1145000D02*
D03*
X52000Y536000D02*
D03*
X755900Y258000D02*
D03*
X781300D02*
D03*
X794000D02*
D03*
X806700D02*
D03*
X768600D02*
D03*
X685000Y462000D02*
D03*
X698000Y449000D02*
D03*
X685000Y475000D02*
D03*
X698000Y462000D02*
D03*
X699500Y258000D02*
D03*
X686800D02*
D03*
X661400D02*
D03*
X674100D02*
D03*
X712200D02*
D03*
X48000Y605000D02*
D03*
X375778Y463778D02*
D03*
X366996Y454500D02*
D03*
X131076Y401839D02*
D03*
X139915Y393000D02*
D03*
X148753Y401839D02*
D03*
X157592Y393000D02*
D03*
X166431Y401839D02*
D03*
X175270Y393000D02*
D03*
X184109Y401839D02*
D03*
X192948Y393000D02*
D03*
X201786Y401839D02*
D03*
X210625Y393000D02*
D03*
X219464Y401839D02*
D03*
X202000Y273000D02*
D03*
X99000Y297000D02*
D03*
X74000Y418000D02*
D03*
X301000Y278000D02*
D03*
X112000Y297000D02*
D03*
X83192Y408808D02*
D03*
X211192Y282192D02*
D03*
X301000Y289500D02*
D03*
X112000Y310000D02*
D03*
X92385Y418000D02*
D03*
X202000Y291385D02*
D03*
X301000Y301000D02*
D03*
X125000Y310000D02*
D03*
X211192Y300577D02*
D03*
X101577Y408808D02*
D03*
X301000Y312500D02*
D03*
X125000Y323000D02*
D03*
X110770Y418000D02*
D03*
X202000Y309770D02*
D03*
X301000Y324000D02*
D03*
X412000Y646000D02*
D03*
Y658000D02*
D03*
Y670000D02*
D03*
Y682000D02*
D03*
Y694000D02*
D03*
X406000Y589586D02*
D03*
Y607971D02*
D03*
X393000Y599750D02*
D03*
Y617163D02*
D03*
X406000Y626355D02*
D03*
X391000Y534000D02*
D03*
X865500Y706500D02*
D03*
X865500Y649500D02*
D03*
X605000Y257000D02*
D03*
X609000Y702000D02*
D03*
X599808Y692808D02*
D03*
X609000Y683615D02*
D03*
X599808Y674423D02*
D03*
X609000Y665230D02*
D03*
X147500Y547500D02*
D03*
X222250Y545750D02*
D03*
X313000Y617000D02*
D03*
X335750Y727750D02*
D03*
X258000Y705000D02*
D03*
X207000Y715000D02*
D03*
X145000Y657000D02*
D03*
Y607000D02*
D03*
X156000Y715000D02*
D03*
X645000Y548000D02*
D03*
X700000D02*
D03*
X762000Y545000D02*
D03*
X757000Y601000D02*
D03*
X758000Y651000D02*
D03*
X760000Y714000D02*
D03*
X685000Y713000D02*
D03*
X599000Y712000D02*
D03*
X591000Y642000D02*
D03*
X591000Y591000D02*
D03*
Y563000D02*
D03*
X591999Y544999D02*
D03*
X43230Y662000D02*
D03*
X52423Y671192D02*
D03*
X61615Y662000D02*
D03*
X70808Y671192D02*
D03*
X80000Y662000D02*
D03*
X223865Y922000D02*
D03*
X233057Y912808D02*
D03*
X242250Y922000D02*
D03*
X251442Y912808D02*
D03*
X554000Y244000D02*
D03*
X657000Y411000D02*
D03*
X763000D02*
D03*
X332000Y494000D02*
D03*
X751000Y785000D02*
D03*
X509000Y656000D02*
D03*
X545000D02*
D03*
X295000Y546000D02*
D03*
X272000Y490000D02*
D03*
X167250Y477250D02*
D03*
X142000Y715000D02*
D03*
X260635Y922000D02*
D03*
X258000Y666000D02*
D03*
X333000Y873000D02*
D03*
X320000Y856000D02*
D03*
X334000Y1178000D02*
D03*
X79000Y1089000D02*
D03*
X70868Y1097132D02*
D03*
X62737Y1105264D02*
D03*
X54605Y1113395D02*
D03*
X46473Y1121527D02*
D03*
X38341Y1129659D02*
D03*
X460000Y895000D02*
D03*
X96000Y565000D02*
D03*
X313000Y667000D02*
D03*
X258000Y555000D02*
D03*
X220808Y646808D02*
D03*
X230000Y656000D02*
D03*
X370000Y843000D02*
D03*
X158000Y1068000D02*
D03*
X166132Y1076132D02*
D03*
X174263Y1084264D02*
D03*
X198659Y1108659D02*
D03*
X190527Y1100527D02*
D03*
X182395Y1092395D02*
D03*
X118500Y1034500D02*
D03*
X165000Y1187000D02*
D03*
M02*
