M48
;Layer_Color=9474304
;FILE_FORMAT=4:4
METRIC,LZ
;TYPE=PLATED
T1F00S00C0.4000
T3F00S00C0.8500
T4F00S00C0.9000
%
T01
X00255Y0009
X00275
Y0011
X00255
X00236Y00122
Y00134
Y00146
Y00158
X00216Y00164
Y00151
Y00138
Y00177
X00317Y00185
X00336808Y00163192
X00346Y00154
X0029Y00071
X00424Y00139
X00434999Y00146
X00479Y00156
X00487Y00143
X0055Y00179
X00645
X0074
X007559Y00258
X007686
X007813
X00794
X008067
X00763Y00411
X00762Y00545
X007Y00548
X00645
X00591999Y00544999
X00591Y00563
X0059Y00437
X00581Y00408
X00571Y00375
X00539Y00443
X00657Y00411
X00685Y00462
Y00475
X00698Y00462
Y00449
X006995Y00258
X006868
X006741
X006614
X006177Y00257
X00605
X005923
X005796
X00554Y00244
X00538Y00206
X00544Y00192
X00462Y00195
X00446
X00455Y00256
X0042Y0025
X004
X00387Y00249
X0037575Y0026925
X00364Y00229
X00424Y00315
X003755Y00374
X00355Y00415
X00366996Y004545
X00375778Y00463778
X003785Y00534
X00391
X00352Y00521
X007122Y00258
X00742
X00301Y00278
Y002895
Y00301
Y003125
Y00324
X00302Y00344
X00269Y00379
X00238Y00402
X00219464Y00401839
X00201786
X00184109
X00166431
X00148753
X00131076
X00139915Y00393
X00157592
X0017527
X00192948
X00210625
X00213Y00325
X00211192Y00300577
Y00282192
X00202Y00273
Y00291385
Y0030977
X00125Y0031
X00112
Y00297
X00099
X00125Y00323
X00101577Y00408808
X00083192
X00074Y00418
X00092385
X0011077
X0016725Y0047725
X001475Y005475
X00096Y00565
X00052Y00536
X0022225Y0054575
X00258Y00555
X00295Y00546
X00272Y0049
X00312Y00467
X00332Y00494
X00308Y00194
X00313Y00617
X00313Y00667
X00258Y00666
X00248Y00685
X002365
X0023Y00656
X00220808Y00646808
X00182Y0068
X00207Y00715
X00156
X00142
X00132Y00744
X00145Y00657
Y00607
X00097Y00597
X00083
X00048Y00605
X0004323Y00662
X00052423Y00671192
X00061615Y00662
X00070808Y00671192
X0008Y00662
X00258Y00705
X0033575Y0072775
X00336Y00752
X0032Y00856
X00333Y00873
X00251442Y00912808
X00233057
X00223865Y00922
X0024225
X00260635
X00175Y00885
X0037Y00843
X00376Y0075
X00412Y00694
Y00682
Y0067
Y00658
Y00646
X00406Y00626355
Y00607971
Y00589586
X00393Y0059975
Y00617163
X00509Y00656
X00545
X00543Y00707
X00599Y00712
X00609Y00702
X00599808Y00692808
X00609Y00683615
X00599808Y00674423
X00609Y0066523
X00591Y00642
X00591Y00591
X00677Y00629
X00685Y00713
X00635Y00775
X00615Y00757
X00595Y00816
X00468763Y008265
X0046Y00819
Y00895
Y00729
X00713Y00837
X00751Y00785
X0076Y00714
X00758Y00651
X00757Y00601
X00809Y00666
X00828Y0066
X008655Y006495
X008655Y007065
X00827Y00709
X00882Y01145
X0039275Y0102275
X00354Y01231
X00334Y01178
X00165Y01187
X00166132Y01076132
X00158Y01068
X00174263Y01084264
X00182395Y01092395
X00190527Y01100527
X00198659Y01108659
X00079Y01089
X00070868Y01097132
X00062737Y01105264
X00054605Y01113395
X00046473Y01121527
X00038341Y01129659
X001185Y010345
X0016Y009945
T03
X00366Y012885
X00316
T04
X007926Y003588
Y003842
Y004096
Y00435
Y004604
X00818
Y00435
Y004096
Y003842
Y003588
X00395Y0033
X003696
X00152Y007806
Y00806
Y008314
Y008568
Y008822
X001266
Y008568
Y008314
Y00806
Y007806
M30
